<svg data-v-0dd9719b="" version="1.0" xmlns="http://www.w3.org/2000/svg" xmlns:xlink="http://www.w3.org/1999/xlink" width="100%" height="100%" viewBox="0 0 340.000000 250.000000" preserveAspectRatio="xMidYMid meet" color-interpolation-filters="sRGB" style="margin: auto;"> <rect data-v-0dd9719b="" x="0" y="0" width="100%" height="100%" fill="#fff" fill-opacity="1" class="background"></rect> <rect data-v-0dd9719b="" x="0" y="0" width="100%" height="100%" fill="url(#watermark)" fill-opacity="1" class="watermarklayer"></rect> <g data-v-0dd9719b="" fill="#333" class="icon-text-wrapper icon-svg-group iconsvg" transform="translate(47.48500061035156,95.00329971313477)"><g class="iconsvg-imagesvg" transform="translate(0,0)"><g><rect fill="#333" fill-opacity="0" stroke-width="2" x="0" y="0" width="60" height="59.99340072592015" class="image-rect"></rect> <svg x="0" y="0" width="60" height="59.99340072592015" filtersec="colorsb7359997854" class="image-svg-svg primary" style="overflow: visible;"><svg xmlns="http://www.w3.org/2000/svg" viewBox="-0.00011640752927633002 -0.00011637622810667381 92.72024536132812 92.70997619628906"><path d="M66.44 59.5a32.92 32.92 0 0 1-.93 7.71c-.06.25-.1.51-.17.76A33.21 33.21 0 0 1 45 90.55a33.25 33.25 0 0 1-34.59-6.89L9.72 83c-.22-.23-.45-.46-.67-.7A33 33 0 0 1 0 59.51c0-.88 0-1.76.11-2.63A40.77 40.77 0 0 0 4.45 62a40.37 40.37 0 0 0 18.33 10.54 40.83 40.83 0 0 0 6.47 1.16l1.38.11c.84 0 1.67.07 2.51.07a40.71 40.71 0 0 0 6.88-.59 41.69 41.69 0 0 0 6.73-1.77l.84-.29A40.66 40.66 0 0 0 62 62a40.07 40.07 0 0 0 4.33-5.12c0 .37.06.75.08 1.13s.03.99.03 1.49zM92.72 33.19c0 .88 0 1.77-.11 2.65a41.63 41.63 0 0 0-4.34-5.11 40.53 40.53 0 0 0-18.33-10.56 40.35 40.35 0 0 0-7.78-1.27c-.87-.05-1.74-.08-2.62-.08H57.7q-1.2.06-2.4.18l-1.61.2-.79.13-.35.05h-.08l-.36.07-.8.14-.79.18-.39.09-.2.05-.19.05-.79.2-1 .27h-.25a1.27 1.27 0 0 0-.18.06H47.37l-.47.15-.4.14h-.07l-.2.07-.23.25-.2.08-.76.28a41 41 0 0 0-18.65 14.38c0-.37-.06-.74-.08-1.11s0-1 0-1.5v-1.07a33.63 33.63 0 0 1 .92-6.77c.05-.22.09-.43.15-.65A33.21 33.21 0 0 1 47.69 2.17 33.34 33.34 0 0 1 59.61 0a32.94 32.94 0 0 1 22.68 9.06l.7.67c.23.22.45.45.68.69a33.14 33.14 0 0 1 9.05 22.77z" fill="#ffc100"></path><path d="M30.73 62a40.77 40.77 0 0 0 5.11 4.34c-.87.07-1.74.11-2.61.11a33.35 33.35 0 0 1-8.49-1.1A33.27 33.27 0 0 1 2.16 45 33.43 33.43 0 0 1 0 33.2a33.07 33.07 0 0 1 9.05-22.78l.68-.69c.22-.23.46-.45.69-.68a33.08 33.08 0 0 1 22.8-9c.87 0 1.75 0 2.63.11l-.13.04a40.8 40.8 0 0 0-15.55 22.58 41.29 41.29 0 0 0-1.34 10.41A40.6 40.6 0 0 0 30.73 62z" fill="#ff045f"></path><path d="M92.72 59.52a33.07 33.07 0 0 1-9 22.77L83 83l-.7.68a33.07 33.07 0 0 1-22.77 9c-.88 0-1.77 0-2.64-.11A42.44 42.44 0 0 0 62 88.28 40.56 40.56 0 0 0 72.54 70c.34-1.28.61-2.57.82-3.87.14-.86.25-1.73.34-2.6.12-1.31.19-2.62.19-3.93A40.94 40.94 0 0 0 71.26 45a40.12 40.12 0 0 0-3.81-7.54 40.78 40.78 0 0 0-10.59-11.1l1.14-.05h1.5c.71 0 1.43 0 2.15.07a32.52 32.52 0 0 1 6.33 1 33.27 33.27 0 0 1 22.58 20.3 33.43 33.43 0 0 1 2.16 11.84z" fill="#1e18ce"></path></svg></svg> <!----></g></g> <g transform="translate(67,18.03670024871826)"><g data-gra="path-name" fill-rule="" class="tp-name iconsvg-namesvg"><g transform="scale(1)"><g><path d="M10.49 0.29Q7.96 0.29 5.72-0.38 3.47-1.05 2.06-2.2L2.06-2.2Q1.31-2.75 1.31-3.77L1.31-3.77Q1.31-4.46 1.72-4.96 2.13-5.47 2.69-5.47L2.69-5.47Q3.28-5.47 4.03-5.01L4.03-5.01Q5.44-4 6.98-3.54 8.52-3.08 10.39-3.08L10.39-3.08Q12.78-3.08 14.06-3.92 15.34-4.75 15.34-6.36L15.34-6.36Q15.34-7.6 14.14-8.27 12.94-8.95 10.16-9.57L10.16-9.57Q7.27-10.19 5.47-11.01 3.67-11.83 2.75-13.11 1.84-14.39 1.84-16.35L1.84-16.35Q1.84-18.38 2.98-19.99 4.13-21.59 6.18-22.5 8.23-23.4 10.78-23.4L10.78-23.4Q15.47-23.4 18.42-20.91L18.42-20.91Q18.84-20.55 19.02-20.2 19.2-19.86 19.2-19.33L19.2-19.33Q19.2-18.65 18.79-18.14 18.38-17.63 17.83-17.63L17.83-17.63Q17.5-17.63 17.22-17.73 16.94-17.83 16.48-18.09L16.48-18.09Q15.14-19.07 13.88-19.55 12.62-20.02 10.78-20.02L10.78-20.02Q8.55-20.02 7.26-19.12 5.96-18.22 5.96-16.61L5.96-16.61Q5.96-15.27 7.11-14.55 8.26-13.83 11.01-13.21L11.01-13.21Q13.93-12.55 15.75-11.75 17.56-10.94 18.53-9.7 19.5-8.45 19.5-6.59L19.5-6.59Q19.5-4.55 18.37-3 17.24-1.44 15.19-0.57 13.14 0.29 10.49 0.29L10.49 0.29ZM31.13-2.85Q32.77-2.75 32.77-1.38L32.77-1.38Q32.77-0.59 32.13-0.18 31.49 0.23 30.31 0.16L30.31 0.16 29.43 0.1Q23.92-0.29 23.92-5.8L23.92-5.8 23.92-12.94 22.28-12.94Q21.4-12.94 20.92-13.34 20.45-13.73 20.45-14.48L20.45-14.48Q20.45-15.24 20.92-15.63 21.4-16.02 22.28-16.02L22.28-16.02 23.92-16.02 23.92-19.04Q23.92-19.92 24.48-20.45 25.04-20.97 25.99-20.97L25.99-20.97Q26.9-20.97 27.46-20.45 28.02-19.92 28.02-19.04L28.02-19.04 28.02-16.02 30.8-16.02Q31.69-16.02 32.16-15.63 32.64-15.24 32.64-14.48L32.64-14.48Q32.64-13.73 32.16-13.34 31.69-12.94 30.8-12.94L30.8-12.94 28.02-12.94 28.02-5.51Q28.02-3.08 30.25-2.92L30.25-2.92 31.13-2.85ZM43.84-16.35Q44.7-16.42 45.19-15.99 45.68-15.57 45.68-14.71L45.68-14.71Q45.68-13.83 45.25-13.4 44.83-12.98 43.71-12.85L43.71-12.85 42.73-12.75Q40.8-12.55 39.9-11.44 39-10.32 39-8.65L39-8.65 39-1.77Q39-0.82 38.41-0.31 37.82 0.2 36.93 0.2L36.93 0.2Q36.05 0.2 35.47-0.31 34.9-0.82 34.9-1.77L34.9-1.77 34.9-14.45Q34.9-15.37 35.47-15.86 36.05-16.35 36.9-16.35L36.9-16.35Q37.75-16.35 38.27-15.88 38.8-15.4 38.8-14.52L38.8-14.52 38.8-13.21Q39.42-14.65 40.65-15.43 41.88-16.22 43.39-16.32L43.39-16.32 43.84-16.35ZM59.8-4.39Q60.36-4.39 60.7-3.97 61.05-3.54 61.05-2.82L61.05-2.82Q61.05-1.8 59.84-1.11L59.84-1.11Q58.72-0.49 57.31-0.11 55.9 0.26 54.63 0.26L54.63 0.26Q50.76 0.26 48.5-1.97 46.24-4.19 46.24-8.06L46.24-8.06Q46.24-10.52 47.22-12.42 48.2-14.32 49.99-15.37 51.77-16.42 54.04-16.42L54.04-16.42Q56.2-16.42 57.8-15.47 59.41-14.52 60.29-12.78 61.18-11.04 61.18-8.68L61.18-8.68Q61.18-7.27 59.93-7.27L59.93-7.27 50.27-7.27Q50.46-5.01 51.55-3.95 52.63-2.88 54.69-2.88L54.69-2.88Q55.74-2.88 56.54-3.15 57.35-3.41 58.36-3.87L58.36-3.87Q59.34-4.39 59.8-4.39L59.8-4.39ZM54.13-13.53Q52.46-13.53 51.46-12.48 50.46-11.44 50.27-9.47L50.27-9.47 57.67-9.47Q57.61-11.47 56.69-12.5 55.77-13.53 54.13-13.53L54.13-13.53ZM71.47-16.42Q74.81-16.42 76.43-14.76 78.06-13.11 78.06-9.73L78.06-9.73 78.06-1.74Q78.06-0.85 77.53-0.34 77.01 0.16 76.09 0.16L76.09 0.16Q75.24 0.16 74.7-0.36 74.16-0.88 74.16-1.74L74.16-1.74 74.16-2.46Q73.6-1.18 72.4-0.46 71.21 0.26 69.63 0.26L69.63 0.26Q68.03 0.26 66.72-0.39 65.41-1.05 64.65-2.2 63.9-3.34 63.9-4.75L63.9-4.75Q63.9-6.52 64.8-7.54 65.7-8.55 67.73-9.01 69.77-9.47 73.34-9.47L73.34-9.47 74.16-9.47 74.16-10.22Q74.16-11.83 73.47-12.57 72.78-13.3 71.24-13.3L71.24-13.3Q70.29-13.3 69.31-13.03 68.32-12.75 66.98-12.22L66.98-12.22Q66.13-11.8 65.73-11.8L65.73-11.8Q65.14-11.8 64.77-12.22 64.39-12.65 64.39-13.34L64.39-13.34Q64.39-13.89 64.67-14.3 64.95-14.71 65.6-15.07L65.6-15.07Q66.75-15.7 68.34-16.06 69.93-16.42 71.47-16.42L71.47-16.42ZM70.45-2.69Q72.09-2.69 73.12-3.78 74.16-4.88 74.16-6.62L74.16-6.62 74.16-7.31 73.57-7.31Q71.37-7.31 70.16-7.11 68.95-6.91 68.42-6.42 67.9-5.93 67.9-5.08L67.9-5.08Q67.9-4.03 68.63-3.36 69.37-2.69 70.45-2.69L70.45-2.69ZM101.26-16.42Q103.88-16.42 105.27-14.86 106.66-13.3 106.66-9.83L106.66-9.83 106.66-1.77Q106.66-0.82 106.09-0.31 105.52 0.2 104.6 0.2L104.6 0.2Q103.71 0.2 103.14-0.31 102.57-0.82 102.57-1.77L102.57-1.77 102.57-9.83Q102.57-11.63 101.93-12.4 101.29-13.17 99.98-13.17L99.98-13.17Q98.37-13.17 97.42-12.08 96.47-10.98 96.47-9.08L96.47-9.08 96.47-1.77Q96.47-0.82 95.9-0.31 95.32 0.2 94.44 0.2L94.44 0.2Q93.56 0.2 92.97-0.31 92.38-0.82 92.38-1.77L92.38-1.77 92.38-9.83Q92.38-11.63 91.74-12.4 91.1-13.17 89.79-13.17L89.79-13.17Q88.18-13.17 87.25-12.08 86.31-10.98 86.31-9.08L86.31-9.08 86.31-1.77Q86.31-0.82 85.72-0.31 85.13 0.2 84.25 0.2L84.25 0.2Q83.36 0.2 82.79-0.31 82.22-0.82 82.22-1.77L82.22-1.77 82.22-14.45Q82.22-15.37 82.81-15.86 83.4-16.35 84.28-16.35L84.28-16.35Q85.13-16.35 85.67-15.88 86.22-15.4 86.22-14.52L86.22-14.52 86.22-13.73Q86.97-15.04 88.23-15.73 89.49-16.42 91.13-16.42L91.13-16.42Q94.74-16.42 95.95-13.4L95.95-13.4Q96.67-14.78 98.08-15.6 99.49-16.42 101.26-16.42L101.26-16.42ZM122-15.17Q122.26-15.76 122.7-16.06 123.15-16.35 123.67-16.35L123.67-16.35Q124.42-16.35 125.03-15.84 125.64-15.34 125.64-14.58L125.64-14.58Q125.64-14.19 125.44-13.8L125.44-13.8 119.38-1.11Q119.08-0.49 118.54-0.16 118 0.16 117.35 0.16L117.35 0.16Q116.72 0.16 116.15-0.16 115.58-0.49 115.28-1.11L115.28-1.11 109.19-13.8Q109.02-14.12 109.02-14.55L109.02-14.55Q109.02-15.3 109.66-15.83 110.3-16.35 111.12-16.35L111.12-16.35Q112.3-16.35 112.86-15.2L112.86-15.2 117.44-5.08 122-15.17ZM130.65 0.2Q129.77 0.2 129.19-0.31 128.62-0.82 128.62-1.77L128.62-1.77 128.62-14.42Q128.62-15.37 129.19-15.86 129.77-16.35 130.65-16.35L130.65-16.35Q131.53-16.35 132.12-15.86 132.71-15.37 132.71-14.42L132.71-14.42 132.71-1.77Q132.71-0.82 132.12-0.31 131.53 0.2 130.65 0.2L130.65 0.2ZM130.65-19.27Q129.54-19.27 128.88-19.87 128.23-20.48 128.23-21.46L128.23-21.46Q128.23-22.45 128.88-23.04 129.54-23.63 130.65-23.63L130.65-23.63Q131.73-23.63 132.4-23.04 133.07-22.45 133.07-21.46L133.07-21.46Q133.07-20.48 132.42-19.87 131.76-19.27 130.65-19.27L130.65-19.27ZM149.62-4.39Q150.18-4.39 150.52-3.97 150.87-3.54 150.87-2.82L150.87-2.82Q150.87-1.8 149.66-1.11L149.66-1.11Q148.54-0.49 147.13-0.11 145.72 0.26 144.45 0.26L144.45 0.26Q140.58 0.26 138.32-1.97 136.06-4.19 136.06-8.06L136.06-8.06Q136.06-10.52 137.04-12.42 138.02-14.32 139.81-15.37 141.59-16.42 143.86-16.42L143.86-16.42Q146.02-16.42 147.62-15.47 149.23-14.52 150.11-12.78 151-11.04 151-8.68L151-8.68Q151-7.27 149.75-7.27L149.75-7.27 140.09-7.27Q140.28-5.01 141.37-3.95 142.45-2.88 144.51-2.88L144.51-2.88Q145.56-2.88 146.36-3.15 147.17-3.41 148.18-3.87L148.18-3.87Q149.16-4.39 149.62-4.39L149.62-4.39ZM143.95-13.53Q142.28-13.53 141.28-12.48 140.28-11.44 140.09-9.47L140.09-9.47 147.49-9.47Q147.43-11.47 146.51-12.5 145.59-13.53 143.95-13.53L143.95-13.53ZM175.74-15.14Q175.97-15.73 176.41-16.02 176.85-16.32 177.38-16.32L177.38-16.32Q178.13-16.32 178.74-15.81 179.34-15.3 179.34-14.55L179.34-14.55Q179.34-14.12 179.18-13.8L179.18-13.8 173.77-1.11Q173.51-0.49 172.97-0.16 172.43 0.16 171.77 0.16L171.77 0.16Q171.15 0.16 170.61-0.16 170.07-0.49 169.81-1.11L169.81-1.11 165.91-10.49 162.14-1.11Q161.88-0.49 161.34-0.16 160.8 0.16 160.14 0.16L160.14 0.16Q159.52 0.16 158.96-0.16 158.41-0.49 158.14-1.11L158.14-1.11 152.77-13.8Q152.61-14.22 152.61-14.52L152.61-14.52Q152.61-15.27 153.26-15.81 153.92-16.35 154.7-16.35L154.7-16.35Q155.26-16.35 155.72-16.06 156.18-15.76 156.41-15.17L156.41-15.17 160.27-5.18 164.24-15.07Q164.5-15.7 164.99-16.01 165.48-16.32 166.07-16.32L166.07-16.32Q166.66-16.32 167.15-16.01 167.65-15.7 167.91-15.07L167.91-15.07 171.91-5.14 175.74-15.14Z" transform="translate(-1.309999942779541, 23.6299991607666)"></path></g> <!----> <!----> <!----> <!----> <!----> <!----> <!----></g></g> <!----></g></g></svg>